# xmcd CD database file
# Copyright (C) 1993-1998 Ti Kan
#
# Track frame offsets:
#	150
#	7652
#	19804
#	35256
#	41033
#	47935
#	62037
#	73439
#	93541
#	108618
#	125120
#
# Disc length: 1852 seconds
#
# Revision: 1
# Processed by: cddbd v1.4b41PL1 Copyright (c) Steve Scherf et al.
# Submitted via: CDValet v3.31 - Copyright (c) 1997 Greg Leichner
#
DISCID=9c073a0b
DTITLE=Machine Gul Language - Piece Talks
DYEAR=1900
DGENRE=
TTITLE0=Dreaming 4$&U
TTITLE1=When she comes down
TTITLE2=Piece Talks
TTITLE3=Dorian Mist
TTITLE4=Chant of the Worls
TTITLE5=King of disco 
TTITLE6=Cool it
TTITLE7=Low Rider (Remix V)
TTITLE8=cyber_Jam
TTITLE9=(remake) Satch 
TTITLE10=Livin in the Funk
EXTD=A crazy fucking blend of acid midi and electric guitar noi
EXTD=se....
EXTT0=I don't know anything about this trak.. next
EXTT1=Nada..
EXTT2=
EXTT3=
EXTT4=
EXTT5=
EXTT6=
EXTT7=
EXTT8=
EXTT9=
EXTT10=
PLAYORDER=
